<?xml version="1.0" encoding="UTF-8" standalone="no"?>
<!-- Created with Inkscape (http://www.inkscape.org/) -->

<svg
   xmlns:dc="http://purl.org/dc/elements/1.1/"
   xmlns:cc="http://creativecommons.org/ns#"
   xmlns:rdf="http://www.w3.org/1999/02/22-rdf-syntax-ns#"
   xmlns:svg="http://www.w3.org/2000/svg"
   xmlns="http://www.w3.org/2000/svg"
   xmlns:sodipodi="http://sodipodi.sourceforge.net/DTD/sodipodi-0.dtd"
   xmlns:inkscape="http://www.inkscape.org/namespaces/inkscape"
   width="256.72607"
   height="406.41479"
   id="svg4826"
   version="1.1"
   inkscape:version="0.47 r22583"
   sodipodi:docname="fmt-logo.svg">
  <defs
     id="defs4828">
    <inkscape:perspective
       sodipodi:type="inkscape:persp3d"
       inkscape:vp_x="0 : 526.18109 : 1"
       inkscape:vp_y="0 : 1000 : 0"
       inkscape:vp_z="744.09448 : 526.18109 : 1"
       inkscape:persp3d-origin="372.04724 : 350.78739 : 1"
       id="perspective4834" />
    <inkscape:perspective
       id="perspective4865"
       inkscape:persp3d-origin="0.5 : 0.33333333 : 1"
       inkscape:vp_z="1 : 0.5 : 1"
       inkscape:vp_y="0 : 1000 : 0"
       inkscape:vp_x="0 : 0.5 : 1"
       sodipodi:type="inkscape:persp3d" />
  </defs>
  <sodipodi:namedview
     id="base"
     pagecolor="#ffffff"
     bordercolor="#666666"
     borderopacity="1.0"
     inkscape:pageopacity="0.0"
     inkscape:pageshadow="2"
     inkscape:zoom="0.7"
     inkscape:cx="191.48073"
     inkscape:cy="230.73225"
     inkscape:document-units="px"
     inkscape:current-layer="layer1"
     showgrid="false"
     inkscape:window-width="1392"
     inkscape:window-height="985"
     inkscape:window-x="0"
     inkscape:window-y="0"
     inkscape:window-maximized="1" />
  <metadata
     id="metadata4831">
    <rdf:RDF>
      <cc:Work
         rdf:about="">
        <dc:format>image/svg+xml</dc:format>
        <dc:type
           rdf:resource="http://purl.org/dc/dcmitype/StillImage" />
        <dc:title></dc:title>
      </cc:Work>
    </rdf:RDF>
  </metadata>
  <g
     inkscape:label="Layer 1"
     inkscape:groupmode="layer"
     id="layer1"
     transform="translate(-367.62187,-390.54557)">
    <g
       transform="matrix(1.25,0,0,-1.25,122.35698,1107.1569)"
       inkscape:label="FMT logo guld[1].ai CMYK"
       id="g4867">
      <g
         transform="scale(1,-1)"
         id="g4869">
        <path
           id="path4871"
           style="fill:#ffd100;fill-opacity:1;fill-rule:nonzero;stroke:none"
           d="m 255.57715,-476.78418 c 0,0 0,19.36426 0,19.36426 0,0 43.3457,0 43.3457,0 0,0 43.33496,0 43.33496,0 0,0 0,-19.36426 0,-19.36426 0,0 -86.68066,0 -86.68066,0 z" />
        <path
           id="path4873"
           style="fill:#ffd100;fill-opacity:1;fill-rule:nonzero;stroke:none"
           d="m 298.92285,-527.01123 c 6.43848,0 11.66602,-5.21973 11.66602,-11.66602 0,-6.44189 -5.22754,-11.66455 -11.66602,-11.66455 -6.44678,0 -11.66992,5.22266 -11.66992,11.66455 0,6.44629 5.22314,11.66602 11.66992,11.66602" />
        <path
           id="path4875"
           style="fill:#ffd100;fill-opacity:1;fill-rule:nonzero;stroke:none"
           d="m 298.91992,-523.6709 c -1.86377,0 -3.21777,-0.27002 -3.21777,-0.27002 0,0 -2.5332,6.19385 -2.49317,6.2041 -1.77099,4.62256 -0.83886,8.74561 1.85596,11.20264 -2.09277,0.63867 -4.44092,1.25684 -5.40381,3.27734 -2.37011,5.15821 3.15381,11.81641 3.43311,17.62891 0.20752,1.48047 0.25976,2.60938 0.28564,3.34375 0,0 11.03321,0 11.03321,0 0,0 0.0918,-3.0625 0.0918,-3.0625 0.125,-5.88672 6.08399,-12.6748 3.66992,-17.91016 -0.958,-2.0205 -3.30371,-2.63867 -5.39941,-3.27734 2.68848,-2.45703 3.62305,-6.58008 1.85449,-11.20264 0.0225,-0.0103 -2.48925,-6.19629 -2.48925,-6.19629 0,0 -1.34864,0.26221 -3.22071,0.26221" />
        <path
           id="path4877"
           style="fill:#ffd100;fill-opacity:1;fill-rule:nonzero;stroke:none"
           d="m 309.22656,-518.12695 c 6.51856,-1.64502 11.24414,-7.88184 18.30762,-6.34717 2.19629,0.77197 3.34766,2.21728 3.82324,4.49512 0.80762,6.54296 -4.06152,10.84521 -7.31054,15.78076 -9.78321,1.66504 -8.48829,13.8457 -8.36915,19.73535 0,0.16992 0.0322,2.17871 0.0322,2.17871 0,0 10.31348,0 10.31348,0 0,0 -0.0137,-3.0752 -0.0137,-3.0752 -0.0664,-6.49023 2.55078,-13.43847 8.49316,-17.2041 1.22754,-1.06933 -1.06934,-2.09961 -2.18848,-1.79785 4.25196,-6.05371 11.6875,-10.69092 11.25879,-18.02148 -0.0166,-0.15332 -0.0322,-0.30323 -0.0322,-0.4502 -0.0469,-2.85693 -2.39258,-6.85107 -2.42579,-6.83691 -1.375,-1.99024 -3.39843,-3.78321 -5.32226,-5.1211 -12.60352,-7.39502 -19.18945,7.37305 -29.54785,10.24414 0,0 2.42676,5.00782 2.98144,6.41993" />
        <path
           id="path4879"
           style="fill:#ffd100;fill-opacity:1;fill-rule:nonzero;stroke:none"
           d="m 345.43555,-531.34521 c 2.5,4.70312 2.93359,8.90722 2.93359,8.93994 2.31836,0.80517 3.1709,2.58545 4.07813,3.90625 2.0664,4.24414 0.66406,10.37793 -5.2168,16.7041 0,0 -0.31836,-0.007 -0.31836,-0.007 -9.92285,-0.30957 -11.08594,11.88574 -12.14258,17.67676 -0.0332,0.1543 -0.21094,1.84082 -0.21094,1.84082 0,0 7.68555,0 7.68555,0 0.4375,-2.72656 1.73438,-5.52344 3.31445,-7.89453 5.31543,-7.84277 14.75782,-12.93555 17.5752,-22.36426 3.69238,-12.13818 -6.82715,-21.26416 -17.69824,-18.80224" />
        <path
           id="path4881"
           style="fill:#ffd100;fill-opacity:1;fill-rule:nonzero;stroke:none"
           d="m 288.57617,-518.10596 c -6.51806,-1.64892 -11.24902,-7.88916 -18.29931,-6.354 -2.21387,0.77197 -3.35694,2.22412 -3.82569,4.49805 -0.81933,6.53613 4.05176,10.84179 7.30371,15.78125 9.79102,1.66406 8.48535,13.84277 8.36719,19.73437 0.002,0.16895 -0.0322,2.17285 -0.0322,2.17285 0,0 -10.30273,0 -10.30273,0 0,0 0.005,-3.07324 0.005,-3.07324 0.0669,-6.48633 -2.55908,-13.4375 -8.49316,-17.20312 -1.23096,-1.07129 1.06738,-2.0879 2.19433,-1.79004 -4.25537,-6.05811 -11.6914,-10.69434 -11.26416,-18.02832 0.02,-0.14893 0.0342,-0.30762 0.0342,-0.44971 0.0449,-2.85498 2.39795,-6.85205 2.43262,-6.83301 1.36719,-1.98828 3.38916,-3.78613 5.31836,-5.11816 12.60205,-7.40186 19.19287,7.36523 29.54199,10.24316 0,0 -2.42529,5.00195 -2.97998,6.41992" />
        <path
           id="path4883"
           style="fill:#ffd100;fill-opacity:1;fill-rule:nonzero;stroke:none"
           d="m 252.37207,-531.33008 c -2.50098,4.70508 -2.93603,8.90918 -2.93603,8.93994 -2.32081,0.81104 -3.16504,2.58692 -4.08106,3.90918 -2.06689,4.2461 -0.66602,10.37598 5.2168,16.70264 0,0 0.32617,-0.009 0.32617,-0.009 9.91601,-0.3125 11.0791,11.88477 12.14209,17.67871 0.0288,0.15137 0.19189,1.83496 0.19189,1.83496 0,0 -7.66992,0 -7.66992,0 -0.4331,-2.72265 -1.73486,-5.51562 -3.31982,-7.88965 -5.31104,-7.84668 -14.75196,-12.92968 -17.57031,-22.35791 -3.68995,-12.14306 6.82324,-21.26709 17.70019,-18.80908" />
        <path
           id="path4885"
           style="fill:#ffd100;fill-opacity:1;fill-rule:nonzero;stroke:none"
           d="m 306.96289,-564.48389 c -1.37891,0 -5.875,1.6958 -5.875,1.6958 0,0 2.10938,-4.74609 2.10938,-6.30712 0,-2.31299 -1.87891,-4.19385 -4.1836,-4.19385 0,0 -0.0107,0 -0.0107,0 -2.32178,0 -4.19873,1.88086 -4.19873,4.19385 0,1.56103 2.10889,6.30712 2.10889,6.30712 0,0 -4.65625,-1.6958 -6.03711,-1.6958 -2.3208,0 -4.19385,1.87305 -4.19385,4.1919 0,2.31201 1.87305,4.18994 4.19385,4.18994 1.33398,0 5.59082,-1.56885 6.00879,-1.69678 0,0 -0.84375,4.36279 -0.84375,4.36279 0,0 3.14257,-0.47119 5.92773,0 -0.18457,-1.31396 -0.75293,-3.5332 -0.86914,-4.36279 0.25781,0.0757 4.51172,1.69678 5.86328,1.69678 2.31641,0 4.19531,-1.87793 4.19531,-4.18994 0,-2.31885 -1.8789,-4.1919 -4.19531,-4.1919" />
        <path
           id="path4887"
           style="fill:#ffd100;fill-opacity:1;fill-rule:nonzero;stroke:none"
           d="m 255.17676,-295.11719 c 0,0 13.45703,-1.27929 29.00732,-6.16211 0,0 -3.60498,-5.37109 -7.59814,-13.03613 0,0 54.55664,-9.80469 88.11426,-63.34961 0,0 11.79785,12.58301 15.78027,18.36231 0,0 -23.61426,59.99218 -81.50635,111.1455 0,0 -27.95117,-24.81445 -43.79736,-46.95996" />
        <path
           id="path4889"
           style="fill:#ffd100;fill-opacity:1;fill-rule:nonzero;stroke:none"
           d="m 382.8252,-364.47754 c 0,0 -7.83887,-11.01465 -19.84082,-22.04101 0,0 -2.84766,5.80859 -7.49024,13.09765 0,0 -35.76953,-42.34277 -98.91992,-44.63281 0,0 4.99756,-16.51172 8.01172,-22.84766 0,0 63.76367,-9.5459 137.00683,15.01563 0,0 -7.51172,36.61035 -18.76757,61.4082" />
        <path
           id="path4891"
           style="fill:#ffd100;fill-opacity:1;fill-rule:nonzero;stroke:none"
           d="m 258.77881,-440.66406 c 0,0 -5.61963,12.29492 -9.16699,28.2041 0,0 6.45312,-0.4375 15.0874,-0.0625 0,0 -18.78613,52.14844 10.80664,107.98437 0,0 -16.79785,3.92579 -23.79395,4.48536 0,0 -40.14697,-50.44922 -55.5,-126.16114 0,0 35.46387,-11.80078 62.5669,-14.45019" />
      </g>
    </g>
  </g>
</svg>
